<?xml version="1.0" encoding="utf-8" standalone="no"?>
<!DOCTYPE svg PUBLIC "-//W3C//DTD SVG 1.1//EN"
  "http://www.w3.org/Graphics/SVG/1.1/DTD/svg11.dtd">
<!-- Created with matplotlib (https://matplotlib.org/) -->
<svg height="538.809449pt" version="1.1" viewBox="0 0 476.291575 538.809449" width="476.291575pt" xmlns="http://www.w3.org/2000/svg" xmlns:xlink="http://www.w3.org/1999/xlink">
 <defs>
  <style type="text/css">
*{stroke-linecap:butt;stroke-linejoin:round;}
  </style>
 </defs>
 <g id="figure_1">
  <g id="patch_1">
   <path d="M 0 538.809449 
L 476.291575 538.809449 
L 476.291575 0 
L 0 0 
z
" style="fill:#ffffff;"/>
  </g>
  <g id="axes_1">
   <g id="patch_2">
    <path clip-path="url(#p0633dea819)" d="M 334.601575 40.08189 
L 334.601575 40.08189 
L 334.601575 40.08189 
L 334.601575 40.08189 
z
" style="fill:none;"/>
   </g>
   <g id="patch_3">
    <path clip-path="url(#p0633dea819)" d="M 334.601575 76.932283 
L 334.601575 76.932283 
L 334.601575 76.932283 
L 334.601575 76.932283 
z
" style="fill:none;"/>
   </g>
   <g id="patch_4">
    <path clip-path="url(#p0633dea819)" d="M 334.601575 113.782677 
L 334.601575 113.782677 
L 334.601575 113.782677 
L 334.601575 113.782677 
z
" style="fill:none;"/>
   </g>
   <g id="patch_5">
    <path clip-path="url(#p0633dea819)" d="M 334.601575 150.633071 
L 334.601575 150.633071 
L 334.601575 150.633071 
L 334.601575 150.633071 
z
" style="fill:none;"/>
   </g>
   <g id="patch_6">
    <path clip-path="url(#p0633dea819)" d="M 154.601575 432.39685 
L 147.514961 433.814173 
L 147.514961 432.39685 
L 143.262992 432.39685 
L 143.262992 432.39685 
L 147.514961 432.39685 
L 147.514961 430.979528 
z
" style="stroke:#000000;stroke-linejoin:miter;"/>
   </g>
   <g id="patch_7">
    <path clip-path="url(#p0633dea819)" d="M 156.995667 442.538387 
L 151.291052 446.975309 
L 150.657206 445.707617 
L 55.82953 493.121455 
L 55.82953 493.121455 
L 150.657206 445.707617 
L 150.02336 444.439925 
z
" style="stroke:#ffa500;stroke-linejoin:miter;"/>
   </g>
   <g id="patch_8">
    <path clip-path="url(#p0633dea819)" d="M 187.420277 412.113777 
L 189.321815 405.141471 
L 190.589507 405.775317 
L 252.176574 282.601184 
L 252.176574 282.601184 
L 190.589507 405.775317 
L 191.857199 406.409163 
z
" style="stroke:#0000ff;stroke-linejoin:miter;"/>
   </g>
   <g id="patch_9">
    <path clip-path="url(#p0633dea819)" d="M 161.243563 416.361673 
L 155.230371 412.352879 
L 156.23257 411.35068 
L 136.621004 391.739114 
L 136.621004 391.739114 
L 156.23257 411.35068 
L 157.234768 410.348481 
z
" style="stroke:#000000;stroke-linejoin:miter;"/>
   </g>
   <g id="patch_10">
    <path clip-path="url(#p0633dea819)" d="M 154.601575 375.703937 
L 147.514961 377.12126 
L 147.514961 375.703937 
L 143.262992 375.703937 
L 143.262992 375.703937 
L 147.514961 375.703937 
L 147.514961 374.286614 
z
" style="stroke:#000000;stroke-linejoin:miter;"/>
   </g>
   <g id="patch_11">
    <path clip-path="url(#p0633dea819)" d="M 156.995667 385.845474 
L 151.291052 390.282396 
L 150.657206 389.014704 
L 55.82953 436.428542 
L 55.82953 436.428542 
L 150.657206 389.014704 
L 150.02336 387.747012 
z
" style="stroke:#ffa500;stroke-linejoin:miter;"/>
   </g>
   <g id="patch_12">
    <path clip-path="url(#p0633dea819)" d="M 190.885039 357.562205 
L 194.00315 351.04252 
L 195.137008 351.892913 
L 248.711811 280.459843 
L 248.711811 280.459843 
L 195.137008 351.892913 
L 196.270866 352.743307 
z
" style="stroke:#0000ff;stroke-linejoin:miter;"/>
   </g>
   <g id="patch_13">
    <path clip-path="url(#p0633dea819)" d="M 161.243563 391.739114 
L 157.234768 397.752306 
L 156.23257 396.750107 
L 136.621004 416.361673 
L 136.621004 416.361673 
L 156.23257 396.750107 
L 155.230371 395.747909 
z
" style="stroke:#000000;stroke-linejoin:miter;"/>
   </g>
   <g id="patch_14">
    <path clip-path="url(#p0633dea819)" d="M 161.243563 359.66876 
L 155.230371 355.659965 
L 156.23257 354.657767 
L 136.621004 335.046201 
L 136.621004 335.046201 
L 156.23257 354.657767 
L 157.234768 353.655568 
z
" style="stroke:#000000;stroke-linejoin:miter;"/>
   </g>
   <g id="patch_15">
    <path clip-path="url(#p0633dea819)" d="M 154.601575 319.011024 
L 147.514961 320.428346 
L 147.514961 319.011024 
L 143.262992 319.011024 
L 143.262992 319.011024 
L 147.514961 319.011024 
L 147.514961 317.593701 
z
" style="stroke:#000000;stroke-linejoin:miter;"/>
   </g>
   <g id="patch_16">
    <path clip-path="url(#p0633dea819)" d="M 156.995667 329.15256 
L 151.291052 333.589483 
L 150.657206 332.32179 
L 55.82953 379.735629 
L 55.82953 379.735629 
L 150.657206 332.32179 
L 150.02336 331.054098 
z
" style="stroke:#ffa500;stroke-linejoin:miter;"/>
   </g>
   <g id="patch_17">
    <path clip-path="url(#p0633dea819)" d="M 196.147282 306.431996 
L 201.257512 301.321765 
L 202.043702 302.501049 
L 243.449568 274.897138 
L 243.449568 274.897138 
L 202.043702 302.501049 
L 202.829891 303.680333 
z
" style="stroke:#0000ff;stroke-linejoin:miter;"/>
   </g>
   <g id="patch_18">
    <path clip-path="url(#p0633dea819)" d="M 161.243563 335.046201 
L 157.234768 341.059393 
L 156.23257 340.057194 
L 136.621004 359.66876 
L 136.621004 359.66876 
L 156.23257 340.057194 
L 155.230371 339.054995 
z
" style="stroke:#000000;stroke-linejoin:miter;"/>
   </g>
   <g id="patch_19">
    <path clip-path="url(#p0633dea819)" d="M 161.243563 302.975846 
L 155.230371 298.967052 
L 156.23257 297.964853 
L 136.621004 278.353288 
L 136.621004 278.353288 
L 156.23257 297.964853 
L 157.234768 296.962655 
z
" style="stroke:#000000;stroke-linejoin:miter;"/>
   </g>
   <g id="patch_20">
    <path clip-path="url(#p0633dea819)" d="M 154.601575 262.31811 
L 147.514961 263.735433 
L 147.514961 262.31811 
L 143.262992 262.31811 
L 143.262992 262.31811 
L 147.514961 262.31811 
L 147.514961 260.900787 
z
" style="stroke:#000000;stroke-linejoin:miter;"/>
   </g>
   <g id="patch_21">
    <path clip-path="url(#p0633dea819)" d="M 156.995667 272.459647 
L 151.291052 276.896569 
L 150.657206 275.628877 
L 55.82953 323.042715 
L 55.82953 323.042715 
L 150.657206 275.628877 
L 150.02336 274.361185 
z
" style="stroke:#ffa500;stroke-linejoin:miter;"/>
   </g>
   <g id="patch_22">
    <path clip-path="url(#p0633dea819)" d="M 199.955906 262.31811 
L 207.04252 260.900787 
L 207.04252 262.31811 
L 239.640945 262.31811 
L 239.640945 262.31811 
L 207.04252 262.31811 
L 207.04252 263.735433 
z
" style="stroke:#0000ff;stroke-linejoin:miter;"/>
   </g>
   <g id="patch_23">
    <path clip-path="url(#p0633dea819)" d="M 161.243563 278.353288 
L 157.234768 284.366479 
L 156.23257 283.364281 
L 136.621004 302.975846 
L 136.621004 302.975846 
L 156.23257 283.364281 
L 155.230371 282.362082 
z
" style="stroke:#000000;stroke-linejoin:miter;"/>
   </g>
   <g id="patch_24">
    <path clip-path="url(#p0633dea819)" d="M 161.243563 246.282933 
L 155.230371 242.274138 
L 156.23257 241.27194 
L 136.621004 221.660374 
L 136.621004 221.660374 
L 156.23257 241.27194 
L 157.234768 240.269741 
z
" style="stroke:#000000;stroke-linejoin:miter;"/>
   </g>
   <g id="patch_25">
    <path clip-path="url(#p0633dea819)" d="M 154.601575 205.625197 
L 147.514961 207.04252 
L 147.514961 205.625197 
L 143.262992 205.625197 
L 143.262992 205.625197 
L 147.514961 205.625197 
L 147.514961 204.207874 
z
" style="stroke:#000000;stroke-linejoin:miter;"/>
   </g>
   <g id="patch_26">
    <path clip-path="url(#p0633dea819)" d="M 156.995667 215.766734 
L 151.291052 220.203656 
L 150.657206 218.935964 
L 55.82953 266.349802 
L 55.82953 266.349802 
L 150.657206 218.935964 
L 150.02336 217.668272 
z
" style="stroke:#ffa500;stroke-linejoin:miter;"/>
   </g>
   <g id="patch_27">
    <path clip-path="url(#p0633dea819)" d="M 196.147282 218.204225 
L 202.829891 220.955887 
L 202.043702 222.135171 
L 243.449568 249.739082 
L 243.449568 249.739082 
L 202.043702 222.135171 
L 201.257512 223.314455 
z
" style="stroke:#0000ff;stroke-linejoin:miter;"/>
   </g>
   <g id="patch_28">
    <path clip-path="url(#p0633dea819)" d="M 161.243563 221.660374 
L 157.234768 227.673566 
L 156.23257 226.671367 
L 136.621004 246.282933 
L 136.621004 246.282933 
L 156.23257 226.671367 
L 155.230371 225.669169 
z
" style="stroke:#000000;stroke-linejoin:miter;"/>
   </g>
   <g id="patch_29">
    <path clip-path="url(#p0633dea819)" d="M 161.243563 189.590019 
L 155.230371 185.581225 
L 156.23257 184.579027 
L 136.621004 164.967461 
L 136.621004 164.967461 
L 156.23257 184.579027 
L 157.234768 183.576828 
z
" style="stroke:#000000;stroke-linejoin:miter;"/>
   </g>
   <g id="patch_30">
    <path clip-path="url(#p0633dea819)" d="M 154.601575 148.932283 
L 147.514961 150.349606 
L 147.514961 148.932283 
L 143.262992 148.932283 
L 143.262992 148.932283 
L 147.514961 148.932283 
L 147.514961 147.514961 
z
" style="stroke:#000000;stroke-linejoin:miter;"/>
   </g>
   <g id="patch_31">
    <path clip-path="url(#p0633dea819)" d="M 156.995667 159.07382 
L 151.291052 163.510742 
L 150.657206 162.24305 
L 55.82953 209.656889 
L 55.82953 209.656889 
L 150.657206 162.24305 
L 150.02336 160.975358 
z
" style="stroke:#ffa500;stroke-linejoin:miter;"/>
   </g>
   <g id="patch_32">
    <path clip-path="url(#p0633dea819)" d="M 190.885039 167.074016 
L 196.270866 171.892913 
L 195.137008 172.743307 
L 248.711811 244.176378 
L 248.711811 244.176378 
L 195.137008 172.743307 
L 194.00315 173.593701 
z
" style="stroke:#0000ff;stroke-linejoin:miter;"/>
   </g>
   <g id="patch_33">
    <path clip-path="url(#p0633dea819)" d="M 161.243563 164.967461 
L 157.234768 170.980652 
L 156.23257 169.978454 
L 136.621004 189.590019 
L 136.621004 189.590019 
L 156.23257 169.978454 
L 155.230371 168.976255 
z
" style="stroke:#000000;stroke-linejoin:miter;"/>
   </g>
   <g id="patch_34">
    <path clip-path="url(#p0633dea819)" d="M 161.243563 132.897106 
L 155.230371 128.888312 
L 156.23257 127.886113 
L 136.621004 108.274547 
L 136.621004 108.274547 
L 156.23257 127.886113 
L 157.234768 126.883915 
z
" style="stroke:#000000;stroke-linejoin:miter;"/>
   </g>
   <g id="patch_35">
    <path clip-path="url(#p0633dea819)" d="M 154.601575 92.23937 
L 147.514961 93.656693 
L 147.514961 92.23937 
L 143.262992 92.23937 
L 143.262992 92.23937 
L 147.514961 92.23937 
L 147.514961 90.822047 
z
" style="stroke:#000000;stroke-linejoin:miter;"/>
   </g>
   <g id="patch_36">
    <path clip-path="url(#p0633dea819)" d="M 156.995667 102.380907 
L 151.291052 106.817829 
L 150.657206 105.550137 
L 55.82953 152.963975 
L 55.82953 152.963975 
L 150.657206 105.550137 
L 150.02336 104.282445 
z
" style="stroke:#ffa500;stroke-linejoin:miter;"/>
   </g>
   <g id="patch_37">
    <path clip-path="url(#p0633dea819)" d="M 187.420277 112.522443 
L 191.857199 118.227058 
L 190.589507 118.860904 
L 252.176574 242.035037 
L 252.176574 242.035037 
L 190.589507 118.860904 
L 189.321815 119.49475 
z
" style="stroke:#0000ff;stroke-linejoin:miter;"/>
   </g>
   <g id="patch_38">
    <path clip-path="url(#p0633dea819)" d="M 161.243563 108.274547 
L 157.234768 114.287739 
L 156.23257 113.28554 
L 136.621004 132.897106 
L 136.621004 132.897106 
L 156.23257 113.28554 
L 155.230371 112.283342 
z
" style="stroke:#000000;stroke-linejoin:miter;"/>
   </g>
   <g id="patch_39">
    <path clip-path="url(#p0633dea819)" d="M 154.601575 35.546457 
L 147.514961 36.96378 
L 147.514961 35.546457 
L 143.262992 35.546457 
L 143.262992 35.546457 
L 147.514961 35.546457 
L 147.514961 34.129134 
z
" style="stroke:#000000;stroke-linejoin:miter;"/>
   </g>
   <g id="patch_40">
    <path clip-path="url(#p0633dea819)" d="M 156.995667 45.687993 
L 151.291052 50.124916 
L 150.657206 48.857224 
L 55.82953 96.271062 
L 55.82953 96.271062 
L 150.657206 48.857224 
L 150.02336 47.589531 
z
" style="stroke:#ffa500;stroke-linejoin:miter;"/>
   </g>
   <g id="patch_41">
    <path clip-path="url(#p0633dea819)" d="M 185.241225 56.779748 
L 189.056582 62.917497 
L 187.729501 63.415152 
L 254.355626 241.084819 
L 254.355626 241.084819 
L 187.729501 63.415152 
L 186.40242 63.912807 
z
" style="stroke:#0000ff;stroke-linejoin:miter;"/>
   </g>
   <g id="patch_42">
    <path clip-path="url(#p0633dea819)" d="M 161.243563 51.581634 
L 157.234768 57.594826 
L 156.23257 56.592627 
L 136.621004 76.204193 
L 136.621004 76.204193 
L 156.23257 56.592627 
L 155.230371 55.590428 
z
" style="stroke:#000000;stroke-linejoin:miter;"/>
   </g>
   <g id="patch_43">
    <path clip-path="url(#p0633dea819)" d="M 120.585827 455.074016 
C 126.599881 455.074016 132.368425 452.684607 136.621004 448.432028 
C 140.873583 444.179449 143.262992 438.410905 143.262992 432.39685 
C 143.262992 426.382796 140.873583 420.614252 136.621004 416.361673 
C 132.368425 412.109094 126.599881 409.719685 120.585827 409.719685 
C 114.571772 409.719685 108.803228 412.109094 104.550649 416.361673 
C 100.298071 420.614252 97.908661 426.382796 97.908661 432.39685 
C 97.908661 438.410905 100.298071 444.179449 104.550649 448.432028 
C 108.803228 452.684607 114.571772 455.074016 120.585827 455.074016 
z
" style="fill:none;stroke:#000000;stroke-linejoin:miter;"/>
   </g>
   <g id="patch_44">
    <path clip-path="url(#p0633dea819)" d="M 177.27874 455.074016 
C 183.292795 455.074016 189.061339 452.684607 193.313918 448.432028 
C 197.566496 444.179449 199.955906 438.410905 199.955906 432.39685 
C 199.955906 426.382796 197.566496 420.614252 193.313918 416.361673 
C 189.061339 412.109094 183.292795 409.719685 177.27874 409.719685 
C 171.264686 409.719685 165.496142 412.109094 161.243563 416.361673 
C 156.990984 420.614252 154.601575 426.382796 154.601575 432.39685 
C 154.601575 438.410905 156.990984 444.179449 161.243563 448.432028 
C 165.496142 452.684607 171.264686 455.074016 177.27874 455.074016 
z
" style="fill:none;stroke:#000000;stroke-linejoin:miter;"/>
   </g>
   <g id="patch_45">
    <path clip-path="url(#p0633dea819)" d="M 35.546457 525.940157 
C 41.560511 525.940157 47.329055 523.550748 51.581634 519.29817 
C 55.834213 515.045591 58.223622 509.277047 58.223622 503.262992 
C 58.223622 497.248938 55.834213 491.480393 51.581634 487.227815 
C 47.329055 482.975236 41.560511 480.585827 35.546457 480.585827 
C 29.532402 480.585827 23.763858 482.975236 19.511279 487.227815 
C 15.258701 491.480393 12.869291 497.248938 12.869291 503.262992 
C 12.869291 509.277047 15.258701 515.045591 19.511279 519.29817 
C 23.763858 523.550748 29.532402 525.940157 35.546457 525.940157 
z
" style="fill:none;stroke:#ffa500;stroke-linejoin:miter;"/>
   </g>
   <g id="patch_46">
    <path clip-path="url(#p0633dea819)" d="M 262.31811 284.995276 
C 268.332165 284.995276 274.100709 282.605866 278.353288 278.353288 
C 282.605866 274.100709 284.995276 268.332165 284.995276 262.31811 
C 284.995276 256.304056 282.605866 250.535512 278.353288 246.282933 
C 274.100709 242.030354 268.332165 239.640945 262.31811 239.640945 
C 256.304056 239.640945 250.535512 242.030354 246.282933 246.282933 
C 242.030354 250.535512 239.640945 256.304056 239.640945 262.31811 
C 239.640945 268.332165 242.030354 274.100709 246.282933 278.353288 
C 250.535512 282.605866 256.304056 284.995276 262.31811 284.995276 
z
" style="fill:none;stroke:#0000ff;stroke-linejoin:miter;"/>
   </g>
   <g id="patch_47">
    <path clip-path="url(#p0633dea819)" d="M 120.585827 396.113386 
C 125.998476 396.113386 131.190166 393.962918 135.017486 390.135597 
C 138.844807 386.308276 140.995276 381.116586 140.995276 375.703937 
C 140.995276 370.291288 138.844807 365.099598 135.017486 361.272277 
C 131.190166 357.444956 125.998476 355.294488 120.585827 355.294488 
C 115.173178 355.294488 109.981488 357.444956 106.154167 361.272277 
C 102.326846 365.099598 100.176378 370.291288 100.176378 375.703937 
C 100.176378 381.116586 102.326846 386.308276 106.154167 390.135597 
C 109.981488 393.962918 115.173178 396.113386 120.585827 396.113386 
z
" style="fill:none;stroke:#000000;stroke-linejoin:miter;"/>
   </g>
   <g id="patch_48">
    <path clip-path="url(#p0633dea819)" d="M 120.585827 398.381102 
C 126.599881 398.381102 132.368425 395.991693 136.621004 391.739114 
C 140.873583 387.486536 143.262992 381.717992 143.262992 375.703937 
C 143.262992 369.689882 140.873583 363.921338 136.621004 359.66876 
C 132.368425 355.416181 126.599881 353.026772 120.585827 353.026772 
C 114.571772 353.026772 108.803228 355.416181 104.550649 359.66876 
C 100.298071 363.921338 97.908661 369.689882 97.908661 375.703937 
C 97.908661 381.717992 100.298071 387.486536 104.550649 391.739114 
C 108.803228 395.991693 114.571772 398.381102 120.585827 398.381102 
z
" style="fill:none;stroke:#000000;stroke-linejoin:miter;"/>
   </g>
   <g id="patch_49">
    <path clip-path="url(#p0633dea819)" d="M 177.27874 396.113386 
C 182.691389 396.113386 187.883079 393.962918 191.7104 390.135597 
C 195.537721 386.308276 197.688189 381.116586 197.688189 375.703937 
C 197.688189 370.291288 195.537721 365.099598 191.7104 361.272277 
C 187.883079 357.444956 182.691389 355.294488 177.27874 355.294488 
C 171.866091 355.294488 166.674401 357.444956 162.84708 361.272277 
C 159.01976 365.099598 156.869291 370.291288 156.869291 375.703937 
C 156.869291 381.116586 159.01976 386.308276 162.84708 390.135597 
C 166.674401 393.962918 171.866091 396.113386 177.27874 396.113386 
z
" style="fill:none;stroke:#000000;stroke-linejoin:miter;"/>
   </g>
   <g id="patch_50">
    <path clip-path="url(#p0633dea819)" d="M 177.27874 398.381102 
C 183.292795 398.381102 189.061339 395.991693 193.313918 391.739114 
C 197.566496 387.486536 199.955906 381.717992 199.955906 375.703937 
C 199.955906 369.689882 197.566496 363.921338 193.313918 359.66876 
C 189.061339 355.416181 183.292795 353.026772 177.27874 353.026772 
C 171.264686 353.026772 165.496142 355.416181 161.243563 359.66876 
C 156.990984 363.921338 154.601575 369.689882 154.601575 375.703937 
C 154.601575 381.717992 156.990984 387.486536 161.243563 391.739114 
C 165.496142 395.991693 171.264686 398.381102 177.27874 398.381102 
z
" style="fill:none;stroke:#000000;stroke-linejoin:miter;"/>
   </g>
   <g id="patch_51">
    <path clip-path="url(#p0633dea819)" d="M 35.546457 469.247244 
C 41.560511 469.247244 47.329055 466.857835 51.581634 462.605256 
C 55.834213 458.352677 58.223622 452.584133 58.223622 446.570079 
C 58.223622 440.556024 55.834213 434.78748 51.581634 430.534901 
C 47.329055 426.282323 41.560511 423.892913 35.546457 423.892913 
C 29.532402 423.892913 23.763858 426.282323 19.511279 430.534901 
C 15.258701 434.78748 12.869291 440.556024 12.869291 446.570079 
C 12.869291 452.584133 15.258701 458.352677 19.511279 462.605256 
C 23.763858 466.857835 29.532402 469.247244 35.546457 469.247244 
z
" style="fill:none;stroke:#ffa500;stroke-linejoin:miter;"/>
   </g>
   <g id="patch_52">
    <path clip-path="url(#p0633dea819)" d="M 120.585827 341.688189 
C 126.599881 341.688189 132.368425 339.29878 136.621004 335.046201 
C 140.873583 330.793622 143.262992 325.025078 143.262992 319.011024 
C 143.262992 312.996969 140.873583 307.228425 136.621004 302.975846 
C 132.368425 298.723267 126.599881 296.333858 120.585827 296.333858 
C 114.571772 296.333858 108.803228 298.723267 104.550649 302.975846 
C 100.298071 307.228425 97.908661 312.996969 97.908661 319.011024 
C 97.908661 325.025078 100.298071 330.793622 104.550649 335.046201 
C 108.803228 339.29878 114.571772 341.688189 120.585827 341.688189 
z
" style="fill:none;stroke:#000000;stroke-linejoin:miter;"/>
   </g>
   <g id="patch_53">
    <path clip-path="url(#p0633dea819)" d="M 177.27874 341.688189 
C 183.292795 341.688189 189.061339 339.29878 193.313918 335.046201 
C 197.566496 330.793622 199.955906 325.025078 199.955906 319.011024 
C 199.955906 312.996969 197.566496 307.228425 193.313918 302.975846 
C 189.061339 298.723267 183.292795 296.333858 177.27874 296.333858 
C 171.264686 296.333858 165.496142 298.723267 161.243563 302.975846 
C 156.990984 307.228425 154.601575 312.996969 154.601575 319.011024 
C 154.601575 325.025078 156.990984 330.793622 161.243563 335.046201 
C 165.496142 339.29878 171.264686 341.688189 177.27874 341.688189 
z
" style="fill:none;stroke:#000000;stroke-linejoin:miter;"/>
   </g>
   <g id="patch_54">
    <path clip-path="url(#p0633dea819)" d="M 35.546457 412.554331 
C 41.560511 412.554331 47.329055 410.164922 51.581634 405.912343 
C 55.834213 401.659764 58.223622 395.89122 58.223622 389.877165 
C 58.223622 383.863111 55.834213 378.094567 51.581634 373.841988 
C 47.329055 369.589409 41.560511 367.2 35.546457 367.2 
C 29.532402 367.2 23.763858 369.589409 19.511279 373.841988 
C 15.258701 378.094567 12.869291 383.863111 12.869291 389.877165 
C 12.869291 395.89122 15.258701 401.659764 19.511279 405.912343 
C 23.763858 410.164922 29.532402 412.554331 35.546457 412.554331 
z
" style="fill:none;stroke:#ffa500;stroke-linejoin:miter;"/>
   </g>
   <g id="patch_55">
    <path clip-path="url(#p0633dea819)" d="M 120.585827 284.995276 
C 126.599881 284.995276 132.368425 282.605866 136.621004 278.353288 
C 140.873583 274.100709 143.262992 268.332165 143.262992 262.31811 
C 143.262992 256.304056 140.873583 250.535512 136.621004 246.282933 
C 132.368425 242.030354 126.599881 239.640945 120.585827 239.640945 
C 114.571772 239.640945 108.803228 242.030354 104.550649 246.282933 
C 100.298071 250.535512 97.908661 256.304056 97.908661 262.31811 
C 97.908661 268.332165 100.298071 274.100709 104.550649 278.353288 
C 108.803228 282.605866 114.571772 284.995276 120.585827 284.995276 
z
" style="fill:none;stroke:#000000;stroke-linejoin:miter;"/>
   </g>
   <g id="patch_56">
    <path clip-path="url(#p0633dea819)" d="M 177.27874 284.995276 
C 183.292795 284.995276 189.061339 282.605866 193.313918 278.353288 
C 197.566496 274.100709 199.955906 268.332165 199.955906 262.31811 
C 199.955906 256.304056 197.566496 250.535512 193.313918 246.282933 
C 189.061339 242.030354 183.292795 239.640945 177.27874 239.640945 
C 171.264686 239.640945 165.496142 242.030354 161.243563 246.282933 
C 156.990984 250.535512 154.601575 256.304056 154.601575 262.31811 
C 154.601575 268.332165 156.990984 274.100709 161.243563 278.353288 
C 165.496142 282.605866 171.264686 284.995276 177.27874 284.995276 
z
" style="fill:none;stroke:#000000;stroke-linejoin:miter;"/>
   </g>
   <g id="patch_57">
    <path clip-path="url(#p0633dea819)" d="M 35.546457 355.861417 
C 41.560511 355.861417 47.329055 353.472008 51.581634 349.219429 
C 55.834213 344.966851 58.223622 339.198307 58.223622 333.184252 
C 58.223622 327.170197 55.834213 321.401653 51.581634 317.149075 
C 47.329055 312.896496 41.560511 310.507087 35.546457 310.507087 
C 29.532402 310.507087 23.763858 312.896496 19.511279 317.149075 
C 15.258701 321.401653 12.869291 327.170197 12.869291 333.184252 
C 12.869291 339.198307 15.258701 344.966851 19.511279 349.219429 
C 23.763858 353.472008 29.532402 355.861417 35.546457 355.861417 
z
" style="fill:none;stroke:#ffa500;stroke-linejoin:miter;"/>
   </g>
   <g id="patch_58">
    <path clip-path="url(#p0633dea819)" d="M 120.585827 228.302362 
C 126.599881 228.302362 132.368425 225.912953 136.621004 221.660374 
C 140.873583 217.407795 143.262992 211.639251 143.262992 205.625197 
C 143.262992 199.611142 140.873583 193.842598 136.621004 189.590019 
C 132.368425 185.337441 126.599881 182.948031 120.585827 182.948031 
C 114.571772 182.948031 108.803228 185.337441 104.550649 189.590019 
C 100.298071 193.842598 97.908661 199.611142 97.908661 205.625197 
C 97.908661 211.639251 100.298071 217.407795 104.550649 221.660374 
C 108.803228 225.912953 114.571772 228.302362 120.585827 228.302362 
z
" style="fill:none;stroke:#000000;stroke-linejoin:miter;"/>
   </g>
   <g id="patch_59">
    <path clip-path="url(#p0633dea819)" d="M 177.27874 228.302362 
C 183.292795 228.302362 189.061339 225.912953 193.313918 221.660374 
C 197.566496 217.407795 199.955906 211.639251 199.955906 205.625197 
C 199.955906 199.611142 197.566496 193.842598 193.313918 189.590019 
C 189.061339 185.337441 183.292795 182.948031 177.27874 182.948031 
C 171.264686 182.948031 165.496142 185.337441 161.243563 189.590019 
C 156.990984 193.842598 154.601575 199.611142 154.601575 205.625197 
C 154.601575 211.639251 156.990984 217.407795 161.243563 221.660374 
C 165.496142 225.912953 171.264686 228.302362 177.27874 228.302362 
z
" style="fill:none;stroke:#000000;stroke-linejoin:miter;"/>
   </g>
   <g id="patch_60">
    <path clip-path="url(#p0633dea819)" d="M 35.546457 299.168504 
C 41.560511 299.168504 47.329055 296.779095 51.581634 292.526516 
C 55.834213 288.273937 58.223622 282.505393 58.223622 276.491339 
C 58.223622 270.477284 55.834213 264.70874 51.581634 260.456161 
C 47.329055 256.203582 41.560511 253.814173 35.546457 253.814173 
C 29.532402 253.814173 23.763858 256.203582 19.511279 260.456161 
C 15.258701 264.70874 12.869291 270.477284 12.869291 276.491339 
C 12.869291 282.505393 15.258701 288.273937 19.511279 292.526516 
C 23.763858 296.779095 29.532402 299.168504 35.546457 299.168504 
z
" style="fill:none;stroke:#ffa500;stroke-linejoin:miter;"/>
   </g>
   <g id="patch_61">
    <path clip-path="url(#p0633dea819)" d="M 120.585827 169.341732 
C 125.998476 169.341732 131.190166 167.191264 135.017486 163.363943 
C 138.844807 159.536622 140.995276 154.344933 140.995276 148.932283 
C 140.995276 143.519634 138.844807 138.327945 135.017486 134.500624 
C 131.190166 130.673303 125.998476 128.522835 120.585827 128.522835 
C 115.173178 128.522835 109.981488 130.673303 106.154167 134.500624 
C 102.326846 138.327945 100.176378 143.519634 100.176378 148.932283 
C 100.176378 154.344933 102.326846 159.536622 106.154167 163.363943 
C 109.981488 167.191264 115.173178 169.341732 120.585827 169.341732 
z
" style="fill:none;stroke:#000000;stroke-linejoin:miter;"/>
   </g>
   <g id="patch_62">
    <path clip-path="url(#p0633dea819)" d="M 120.585827 171.609449 
C 126.599881 171.609449 132.368425 169.22004 136.621004 164.967461 
C 140.873583 160.714882 143.262992 154.946338 143.262992 148.932283 
C 143.262992 142.918229 140.873583 137.149685 136.621004 132.897106 
C 132.368425 128.644527 126.599881 126.255118 120.585827 126.255118 
C 114.571772 126.255118 108.803228 128.644527 104.550649 132.897106 
C 100.298071 137.149685 97.908661 142.918229 97.908661 148.932283 
C 97.908661 154.946338 100.298071 160.714882 104.550649 164.967461 
C 108.803228 169.22004 114.571772 171.609449 120.585827 171.609449 
z
" style="fill:none;stroke:#000000;stroke-linejoin:miter;"/>
   </g>
   <g id="patch_63">
    <path clip-path="url(#p0633dea819)" d="M 177.27874 169.341732 
C 182.691389 169.341732 187.883079 167.191264 191.7104 163.363943 
C 195.537721 159.536622 197.688189 154.344933 197.688189 148.932283 
C 197.688189 143.519634 195.537721 138.327945 191.7104 134.500624 
C 187.883079 130.673303 182.691389 128.522835 177.27874 128.522835 
C 171.866091 128.522835 166.674401 130.673303 162.84708 134.500624 
C 159.01976 138.327945 156.869291 143.519634 156.869291 148.932283 
C 156.869291 154.344933 159.01976 159.536622 162.84708 163.363943 
C 166.674401 167.191264 171.866091 169.341732 177.27874 169.341732 
z
" style="fill:none;stroke:#000000;stroke-linejoin:miter;"/>
   </g>
   <g id="patch_64">
    <path clip-path="url(#p0633dea819)" d="M 177.27874 171.609449 
C 183.292795 171.609449 189.061339 169.22004 193.313918 164.967461 
C 197.566496 160.714882 199.955906 154.946338 199.955906 148.932283 
C 199.955906 142.918229 197.566496 137.149685 193.313918 132.897106 
C 189.061339 128.644527 183.292795 126.255118 177.27874 126.255118 
C 171.264686 126.255118 165.496142 128.644527 161.243563 132.897106 
C 156.990984 137.149685 154.601575 142.918229 154.601575 148.932283 
C 154.601575 154.946338 156.990984 160.714882 161.243563 164.967461 
C 165.496142 169.22004 171.264686 171.609449 177.27874 171.609449 
z
" style="fill:none;stroke:#000000;stroke-linejoin:miter;"/>
   </g>
   <g id="patch_65">
    <path clip-path="url(#p0633dea819)" d="M 35.546457 242.475591 
C 41.560511 242.475591 47.329055 240.086181 51.581634 235.833603 
C 55.834213 231.581024 58.223622 225.81248 58.223622 219.798425 
C 58.223622 213.784371 55.834213 208.015827 51.581634 203.763248 
C 47.329055 199.510669 41.560511 197.12126 35.546457 197.12126 
C 29.532402 197.12126 23.763858 199.510669 19.511279 203.763248 
C 15.258701 208.015827 12.869291 213.784371 12.869291 219.798425 
C 12.869291 225.81248 15.258701 231.581024 19.511279 235.833603 
C 23.763858 240.086181 29.532402 242.475591 35.546457 242.475591 
z
" style="fill:none;stroke:#ffa500;stroke-linejoin:miter;"/>
   </g>
   <g id="patch_66">
    <path clip-path="url(#p0633dea819)" d="M 120.585827 114.916535 
C 126.599881 114.916535 132.368425 112.527126 136.621004 108.274547 
C 140.873583 104.021969 143.262992 98.253425 143.262992 92.23937 
C 143.262992 86.225316 140.873583 80.456771 136.621004 76.204193 
C 132.368425 71.951614 126.599881 69.562205 120.585827 69.562205 
C 114.571772 69.562205 108.803228 71.951614 104.550649 76.204193 
C 100.298071 80.456771 97.908661 86.225316 97.908661 92.23937 
C 97.908661 98.253425 100.298071 104.021969 104.550649 108.274547 
C 108.803228 112.527126 114.571772 114.916535 120.585827 114.916535 
z
" style="fill:none;stroke:#000000;stroke-linejoin:miter;"/>
   </g>
   <g id="patch_67">
    <path clip-path="url(#p0633dea819)" d="M 177.27874 114.916535 
C 183.292795 114.916535 189.061339 112.527126 193.313918 108.274547 
C 197.566496 104.021969 199.955906 98.253425 199.955906 92.23937 
C 199.955906 86.225316 197.566496 80.456771 193.313918 76.204193 
C 189.061339 71.951614 183.292795 69.562205 177.27874 69.562205 
C 171.264686 69.562205 165.496142 71.951614 161.243563 76.204193 
C 156.990984 80.456771 154.601575 86.225316 154.601575 92.23937 
C 154.601575 98.253425 156.990984 104.021969 161.243563 108.274547 
C 165.496142 112.527126 171.264686 114.916535 177.27874 114.916535 
z
" style="fill:none;stroke:#000000;stroke-linejoin:miter;"/>
   </g>
   <g id="patch_68">
    <path clip-path="url(#p0633dea819)" d="M 35.546457 185.782677 
C 41.560511 185.782677 47.329055 183.393268 51.581634 179.140689 
C 55.834213 174.88811 58.223622 169.119566 58.223622 163.105512 
C 58.223622 157.091457 55.834213 151.322913 51.581634 147.070334 
C 47.329055 142.817756 41.560511 140.428346 35.546457 140.428346 
C 29.532402 140.428346 23.763858 142.817756 19.511279 147.070334 
C 15.258701 151.322913 12.869291 157.091457 12.869291 163.105512 
C 12.869291 169.119566 15.258701 174.88811 19.511279 179.140689 
C 23.763858 183.393268 29.532402 185.782677 35.546457 185.782677 
z
" style="fill:none;stroke:#ffa500;stroke-linejoin:miter;"/>
   </g>
   <g id="patch_69">
    <path clip-path="url(#p0633dea819)" d="M 120.585827 58.223622 
C 126.599881 58.223622 132.368425 55.834213 136.621004 51.581634 
C 140.873583 47.329055 143.262992 41.560511 143.262992 35.546457 
C 143.262992 29.532402 140.873583 23.763858 136.621004 19.511279 
C 132.368425 15.258701 126.599881 12.869291 120.585827 12.869291 
C 114.571772 12.869291 108.803228 15.258701 104.550649 19.511279 
C 100.298071 23.763858 97.908661 29.532402 97.908661 35.546457 
C 97.908661 41.560511 100.298071 47.329055 104.550649 51.581634 
C 108.803228 55.834213 114.571772 58.223622 120.585827 58.223622 
z
" style="fill:none;stroke:#000000;stroke-linejoin:miter;"/>
   </g>
   <g id="patch_70">
    <path clip-path="url(#p0633dea819)" d="M 177.27874 58.223622 
C 183.292795 58.223622 189.061339 55.834213 193.313918 51.581634 
C 197.566496 47.329055 199.955906 41.560511 199.955906 35.546457 
C 199.955906 29.532402 197.566496 23.763858 193.313918 19.511279 
C 189.061339 15.258701 183.292795 12.869291 177.27874 12.869291 
C 171.264686 12.869291 165.496142 15.258701 161.243563 19.511279 
C 156.990984 23.763858 154.601575 29.532402 154.601575 35.546457 
C 154.601575 41.560511 156.990984 47.329055 161.243563 51.581634 
C 165.496142 55.834213 171.264686 58.223622 177.27874 58.223622 
z
" style="fill:none;stroke:#000000;stroke-linejoin:miter;"/>
   </g>
   <g id="patch_71">
    <path clip-path="url(#p0633dea819)" d="M 35.546457 129.089764 
C 41.560511 129.089764 47.329055 126.700355 51.581634 122.447776 
C 55.834213 118.195197 58.223622 112.426653 58.223622 106.412598 
C 58.223622 100.398544 55.834213 94.63 51.581634 90.377421 
C 47.329055 86.124842 41.560511 83.735433 35.546457 83.735433 
C 29.532402 83.735433 23.763858 86.124842 19.511279 90.377421 
C 15.258701 94.63 12.869291 100.398544 12.869291 106.412598 
C 12.869291 112.426653 15.258701 118.195197 19.511279 122.447776 
C 23.763858 126.700355 29.532402 129.089764 35.546457 129.089764 
z
" style="fill:none;stroke:#ffa500;stroke-linejoin:miter;"/>
   </g>
   <g id="patch_72">
    <path clip-path="url(#p0633dea819)" d="M 319.011024 49.719685 
C 322.769808 49.719685 326.375148 48.226304 329.033009 45.568443 
C 331.690871 42.910581 333.184252 39.305241 333.184252 35.546457 
C 333.184252 31.787673 331.690871 28.182333 329.033009 25.524471 
C 326.375148 22.866609 322.769808 21.373228 319.011024 21.373228 
C 315.25224 21.373228 311.646899 22.866609 308.989038 25.524471 
C 306.331176 28.182333 304.837795 31.787673 304.837795 35.546457 
C 304.837795 39.305241 306.331176 42.910581 308.989038 45.568443 
C 311.646899 48.226304 315.25224 49.719685 319.011024 49.719685 
z
" style="fill:none;stroke:#000000;stroke-linejoin:miter;"/>
   </g>
   <g id="patch_73">
    <path clip-path="url(#p0633dea819)" d="M 319.011024 85.152756 
C 322.393929 85.152756 325.638735 83.808713 328.030811 81.416638 
C 330.422886 79.024562 331.766929 75.779756 331.766929 72.39685 
C 331.766929 69.013945 330.422886 65.769139 328.030811 63.377063 
C 325.638735 60.984988 322.393929 59.640945 319.011024 59.640945 
C 315.628118 59.640945 312.383312 60.984988 309.991236 63.377063 
C 307.599161 65.769139 306.255118 69.013945 306.255118 72.39685 
C 306.255118 75.779756 307.599161 79.024562 309.991236 81.416638 
C 312.383312 83.808713 315.628118 85.152756 319.011024 85.152756 
z
" style="fill:none;stroke:#000000;stroke-linejoin:miter;"/>
   </g>
   <g id="patch_74">
    <path clip-path="url(#p0633dea819)" d="M 319.011024 86.570079 
C 322.769808 86.570079 326.375148 85.076698 329.033009 82.418836 
C 331.690871 79.760975 333.184252 76.155634 333.184252 72.39685 
C 333.184252 68.638066 331.690871 65.032726 329.033009 62.374865 
C 326.375148 59.717003 322.769808 58.223622 319.011024 58.223622 
C 315.25224 58.223622 311.646899 59.717003 308.989038 62.374865 
C 306.331176 65.032726 304.837795 68.638066 304.837795 72.39685 
C 304.837795 76.155634 306.331176 79.760975 308.989038 82.418836 
C 311.646899 85.076698 315.25224 86.570079 319.011024 86.570079 
z
" style="fill:none;stroke:#000000;stroke-linejoin:miter;"/>
   </g>
   <g id="patch_75">
    <path clip-path="url(#p0633dea819)" d="M 319.011024 123.420472 
C 322.769808 123.420472 326.375148 121.927092 329.033009 119.26923 
C 331.690871 116.611368 333.184252 113.006028 333.184252 109.247244 
C 333.184252 105.48846 331.690871 101.88312 329.033009 99.225258 
C 326.375148 96.567396 322.769808 95.074016 319.011024 95.074016 
C 315.25224 95.074016 311.646899 96.567396 308.989038 99.225258 
C 306.331176 101.88312 304.837795 105.48846 304.837795 109.247244 
C 304.837795 113.006028 306.331176 116.611368 308.989038 119.26923 
C 311.646899 121.927092 315.25224 123.420472 319.011024 123.420472 
z
" style="fill:none;stroke:#0000ff;stroke-linejoin:miter;"/>
   </g>
   <g id="patch_76">
    <path clip-path="url(#p0633dea819)" d="M 319.011024 160.270866 
C 322.769808 160.270866 326.375148 158.777485 329.033009 156.119624 
C 331.690871 153.461762 333.184252 149.856422 333.184252 146.097638 
C 333.184252 142.338854 331.690871 138.733514 329.033009 136.075652 
C 326.375148 133.41779 322.769808 131.924409 319.011024 131.924409 
C 315.25224 131.924409 311.646899 133.41779 308.989038 136.075652 
C 306.331176 138.733514 304.837795 142.338854 304.837795 146.097638 
C 304.837795 149.856422 306.331176 153.461762 308.989038 156.119624 
C 311.646899 158.777485 315.25224 160.270866 319.011024 160.270866 
z
" style="fill:none;stroke:#ffa500;stroke-linejoin:miter;"/>
   </g>
   <g id="matplotlib.axis_1"/>
   <g id="matplotlib.axis_2"/>
   <g id="text_1">
    <g id="patch_77">
     <path d="M 330.641575 44.04189 
L 441.000325 44.04189 
L 441.000325 24.50814 
L 330.641575 24.50814 
z
" style="fill:none;"/>
    </g>
    <!-- = latent variable -->
    <defs>
     <path d="M 10.59375 45.21875 
L 73.1875 45.21875 
L 73.1875 37.40625 
L 10.59375 37.40625 
z
M 10.59375 25.296875 
L 73.1875 25.296875 
L 73.1875 17.484375 
L 10.59375 17.484375 
z
" id="DejaVuSerif-61"/>
     <path id="DejaVuSerif-32"/>
     <path d="M 20.515625 5.171875 
L 29 5.171875 
L 29 0 
L 2.875 0 
L 2.875 5.171875 
L 11.53125 5.171875 
L 11.53125 70.796875 
L 2.875 70.796875 
L 2.875 75.984375 
L 20.515625 75.984375 
z
" id="DejaVuSerif-108"/>
     <path d="M 39.796875 16.3125 
L 39.796875 27.296875 
L 28.21875 27.296875 
Q 21.53125 27.296875 18.25 24.40625 
Q 14.984375 21.53125 14.984375 15.578125 
Q 14.984375 10.15625 18.296875 6.984375 
Q 21.625 3.8125 27.296875 3.8125 
Q 32.90625 3.8125 36.34375 7.28125 
Q 39.796875 10.75 39.796875 16.3125 
z
M 48.78125 32.421875 
L 48.78125 5.171875 
L 56.78125 5.171875 
L 56.78125 0 
L 39.796875 0 
L 39.796875 5.609375 
Q 36.8125 2 32.90625 0.28125 
Q 29 -1.421875 23.78125 -1.421875 
Q 15.140625 -1.421875 10.0625 3.171875 
Q 4.984375 7.765625 4.984375 15.578125 
Q 4.984375 23.640625 10.796875 28.078125 
Q 16.609375 32.515625 27.203125 32.515625 
L 39.796875 32.515625 
L 39.796875 36.078125 
Q 39.796875 42 36.203125 45.234375 
Q 32.625 48.484375 26.125 48.484375 
Q 20.75 48.484375 17.578125 46.046875 
Q 14.40625 43.609375 13.625 38.8125 
L 8.984375 38.8125 
L 8.984375 49.3125 
Q 13.671875 51.3125 18.09375 52.3125 
Q 22.515625 53.328125 26.703125 53.328125 
Q 37.5 53.328125 43.140625 47.96875 
Q 48.78125 42.625 48.78125 32.421875 
z
" id="DejaVuSerif-97"/>
     <path d="M 10.796875 46.6875 
L 2.875 46.6875 
L 2.875 51.90625 
L 10.796875 51.90625 
L 10.796875 68.015625 
L 19.828125 68.015625 
L 19.828125 51.90625 
L 36.71875 51.90625 
L 36.71875 46.6875 
L 19.828125 46.6875 
L 19.828125 13.71875 
Q 19.828125 7.125 21.09375 5.265625 
Q 22.359375 3.421875 25.78125 3.421875 
Q 29.296875 3.421875 30.90625 5.484375 
Q 32.515625 7.5625 32.625 12.203125 
L 39.40625 12.203125 
Q 39.015625 5.125 35.546875 1.84375 
Q 32.078125 -1.421875 25 -1.421875 
Q 17.234375 -1.421875 14.015625 2.015625 
Q 10.796875 5.46875 10.796875 13.71875 
z
" id="DejaVuSerif-116"/>
     <path d="M 54.203125 25 
L 15.484375 25 
L 15.484375 24.609375 
Q 15.484375 14.109375 19.4375 8.765625 
Q 23.390625 3.421875 31.109375 3.421875 
Q 37.015625 3.421875 40.796875 6.515625 
Q 44.578125 9.625 46.09375 15.71875 
L 53.328125 15.71875 
Q 51.171875 7.171875 45.375 2.875 
Q 39.59375 -1.421875 30.171875 -1.421875 
Q 18.796875 -1.421875 11.890625 6.078125 
Q 4.984375 13.578125 4.984375 25.984375 
Q 4.984375 38.28125 11.765625 45.796875 
Q 18.5625 53.328125 29.59375 53.328125 
Q 41.359375 53.328125 47.65625 46.0625 
Q 53.953125 38.8125 54.203125 25 
z
M 43.609375 30.171875 
Q 43.3125 39.265625 39.765625 43.875 
Q 36.234375 48.484375 29.59375 48.484375 
Q 23.390625 48.484375 19.828125 43.84375 
Q 16.265625 39.203125 15.484375 30.171875 
z
" id="DejaVuSerif-101"/>
     <path d="M 4.109375 0 
L 4.109375 5.171875 
L 12.203125 5.171875 
L 12.203125 46.6875 
L 3.609375 46.6875 
L 3.609375 51.90625 
L 21.1875 51.90625 
L 21.1875 42.671875 
Q 23.6875 47.953125 27.65625 50.640625 
Q 31.640625 53.328125 36.921875 53.328125 
Q 45.515625 53.328125 49.5625 48.390625 
Q 53.609375 43.453125 53.609375 33.015625 
L 53.609375 5.171875 
L 61.625 5.171875 
L 61.625 0 
L 36.8125 0 
L 36.8125 5.171875 
L 44.578125 5.171875 
L 44.578125 30.171875 
Q 44.578125 39.703125 42.234375 43.234375 
Q 39.890625 46.78125 33.984375 46.78125 
Q 27.734375 46.78125 24.453125 42.203125 
Q 21.1875 37.640625 21.1875 28.90625 
L 21.1875 5.171875 
L 29 5.171875 
L 29 0 
z
" id="DejaVuSerif-110"/>
     <path d="M 24.703125 0 
L 5.609375 46.6875 
L -0.296875 46.6875 
L -0.296875 51.90625 
L 23.578125 51.90625 
L 23.578125 46.6875 
L 15.28125 46.6875 
L 29.890625 10.984375 
L 44.484375 46.6875 
L 36.71875 46.6875 
L 36.71875 51.90625 
L 56.203125 51.90625 
L 56.203125 46.6875 
L 50.390625 46.6875 
L 31.296875 0 
z
" id="DejaVuSerif-118"/>
     <path d="M 47.796875 52 
L 47.796875 39.015625 
L 42.625 39.015625 
Q 42.390625 42.875 40.484375 44.78125 
Q 38.578125 46.6875 34.90625 46.6875 
Q 28.265625 46.6875 24.71875 42.09375 
Q 21.1875 37.5 21.1875 28.90625 
L 21.1875 5.171875 
L 31.59375 5.171875 
L 31.59375 0 
L 4.109375 0 
L 4.109375 5.171875 
L 12.203125 5.171875 
L 12.203125 46.78125 
L 3.609375 46.78125 
L 3.609375 51.90625 
L 21.1875 51.90625 
L 21.1875 42.671875 
Q 23.828125 48.09375 27.96875 50.703125 
Q 32.125 53.328125 38.09375 53.328125 
Q 40.28125 53.328125 42.703125 52.984375 
Q 45.125 52.640625 47.796875 52 
z
" id="DejaVuSerif-114"/>
     <path d="M 9.71875 68.015625 
Q 9.71875 70.265625 11.34375 71.921875 
Q 12.984375 73.578125 15.28125 73.578125 
Q 17.53125 73.578125 19.15625 71.921875 
Q 20.796875 70.265625 20.796875 68.015625 
Q 20.796875 65.71875 19.1875 64.109375 
Q 17.578125 62.5 15.28125 62.5 
Q 12.984375 62.5 11.34375 64.109375 
Q 9.71875 65.71875 9.71875 68.015625 
z
M 21.1875 5.171875 
L 29.6875 5.171875 
L 29.6875 0 
L 3.609375 0 
L 3.609375 5.171875 
L 12.203125 5.171875 
L 12.203125 46.6875 
L 3.609375 46.6875 
L 3.609375 51.90625 
L 21.1875 51.90625 
z
" id="DejaVuSerif-105"/>
     <path d="M 11.53125 5.171875 
L 11.53125 70.796875 
L 2.875 70.796875 
L 2.875 75.984375 
L 20.515625 75.984375 
L 20.515625 43.796875 
Q 23.140625 48.6875 27.21875 51 
Q 31.296875 53.328125 37.3125 53.328125 
Q 46.875 53.328125 52.921875 45.75 
Q 58.984375 38.1875 58.984375 25.984375 
Q 58.984375 13.765625 52.921875 6.171875 
Q 46.875 -1.421875 37.3125 -1.421875 
Q 31.296875 -1.421875 27.21875 0.890625 
Q 23.140625 3.21875 20.515625 8.109375 
L 20.515625 0 
L 2.875 0 
L 2.875 5.171875 
z
M 20.515625 23.390625 
Q 20.515625 14.015625 24.09375 9.109375 
Q 27.6875 4.203125 34.515625 4.203125 
Q 41.40625 4.203125 44.9375 9.71875 
Q 48.484375 15.234375 48.484375 25.984375 
Q 48.484375 36.765625 44.9375 42.234375 
Q 41.40625 47.703125 34.515625 47.703125 
Q 27.6875 47.703125 24.09375 42.765625 
Q 20.515625 37.84375 20.515625 28.515625 
z
" id="DejaVuSerif-98"/>
    </defs>
    <g transform="translate(334.601575 37.586265)scale(0.12 -0.12)">
     <use xlink:href="#DejaVuSerif-61"/>
     <use x="83.789062" xlink:href="#DejaVuSerif-32"/>
     <use x="115.576172" xlink:href="#DejaVuSerif-108"/>
     <use x="147.558594" xlink:href="#DejaVuSerif-97"/>
     <use x="207.177734" xlink:href="#DejaVuSerif-116"/>
     <use x="247.363281" xlink:href="#DejaVuSerif-101"/>
     <use x="306.542969" xlink:href="#DejaVuSerif-110"/>
     <use x="370.947266" xlink:href="#DejaVuSerif-116"/>
     <use x="411.132812" xlink:href="#DejaVuSerif-32"/>
     <use x="442.919922" xlink:href="#DejaVuSerif-118"/>
     <use x="499.414062" xlink:href="#DejaVuSerif-97"/>
     <use x="559.033203" xlink:href="#DejaVuSerif-114"/>
     <use x="606.835938" xlink:href="#DejaVuSerif-105"/>
     <use x="638.818359" xlink:href="#DejaVuSerif-97"/>
     <use x="698.4375" xlink:href="#DejaVuSerif-98"/>
     <use x="762.451172" xlink:href="#DejaVuSerif-108"/>
     <use x="794.433594" xlink:href="#DejaVuSerif-101"/>
    </g>
   </g>
   <g id="text_2">
    <g id="patch_78">
     <path d="M 330.641575 80.892283 
L 460.9972 80.892283 
L 460.9972 61.358533 
L 330.641575 61.358533 
z
" style="fill:none;"/>
    </g>
    <!-- = observed variable -->
    <defs>
     <path d="M 30.078125 3.421875 
Q 37.3125 3.421875 40.984375 9.125 
Q 44.671875 14.84375 44.671875 25.984375 
Q 44.671875 37.109375 40.984375 42.796875 
Q 37.3125 48.484375 30.078125 48.484375 
Q 22.859375 48.484375 19.171875 42.796875 
Q 15.484375 37.109375 15.484375 25.984375 
Q 15.484375 14.84375 19.1875 9.125 
Q 22.90625 3.421875 30.078125 3.421875 
z
M 30.078125 -1.421875 
Q 18.75 -1.421875 11.859375 6.078125 
Q 4.984375 13.578125 4.984375 25.984375 
Q 4.984375 38.375 11.84375 45.84375 
Q 18.703125 53.328125 30.078125 53.328125 
Q 41.453125 53.328125 48.3125 45.84375 
Q 55.171875 38.375 55.171875 25.984375 
Q 55.171875 13.578125 48.3125 6.078125 
Q 41.453125 -1.421875 30.078125 -1.421875 
z
" id="DejaVuSerif-111"/>
     <path d="M 5.609375 2.875 
L 5.609375 14.984375 
L 10.796875 14.984375 
Q 10.984375 9.1875 14.421875 6.296875 
Q 17.875 3.421875 24.609375 3.421875 
Q 30.671875 3.421875 33.84375 5.6875 
Q 37.015625 7.953125 37.015625 12.3125 
Q 37.015625 15.71875 34.6875 17.8125 
Q 32.375 19.921875 24.90625 22.3125 
L 18.40625 24.515625 
Q 11.71875 26.65625 8.71875 29.875 
Q 5.71875 33.109375 5.71875 38.09375 
Q 5.71875 45.21875 10.9375 49.265625 
Q 16.15625 53.328125 25.390625 53.328125 
Q 29.5 53.328125 34.03125 52.25 
Q 38.578125 51.171875 43.40625 49.125 
L 43.40625 37.796875 
L 38.234375 37.796875 
Q 38.03125 42.828125 34.703125 45.65625 
Q 31.390625 48.484375 25.6875 48.484375 
Q 20.015625 48.484375 17.109375 46.484375 
Q 14.203125 44.484375 14.203125 40.484375 
Q 14.203125 37.203125 16.40625 35.21875 
Q 18.609375 33.25 25.203125 31.203125 
L 32.328125 29 
Q 39.703125 26.703125 42.9375 23.265625 
Q 46.1875 19.828125 46.1875 14.40625 
Q 46.1875 7.03125 40.546875 2.796875 
Q 34.90625 -1.421875 25 -1.421875 
Q 19.96875 -1.421875 15.1875 -0.34375 
Q 10.40625 0.734375 5.609375 2.875 
z
" id="DejaVuSerif-115"/>
     <path d="M 52.484375 5.171875 
L 61.078125 5.171875 
L 61.078125 0 
L 43.5 0 
L 43.5 8.109375 
Q 40.875 3.21875 36.796875 0.890625 
Q 32.71875 -1.421875 26.703125 -1.421875 
Q 17.140625 -1.421875 11.0625 6.171875 
Q 4.984375 13.765625 4.984375 25.984375 
Q 4.984375 38.1875 11.03125 45.75 
Q 17.09375 53.328125 26.703125 53.328125 
Q 32.71875 53.328125 36.796875 51 
Q 40.875 48.6875 43.5 43.796875 
L 43.5 70.796875 
L 35.015625 70.796875 
L 35.015625 75.984375 
L 52.484375 75.984375 
z
M 43.5 23.390625 
L 43.5 28.515625 
Q 43.5 37.84375 39.90625 42.765625 
Q 36.328125 47.703125 29.5 47.703125 
Q 22.5625 47.703125 19.015625 42.234375 
Q 15.484375 36.765625 15.484375 25.984375 
Q 15.484375 15.234375 19.015625 9.71875 
Q 22.5625 4.203125 29.5 4.203125 
Q 36.328125 4.203125 39.90625 9.109375 
Q 43.5 14.015625 43.5 23.390625 
z
" id="DejaVuSerif-100"/>
    </defs>
    <g transform="translate(334.601575 74.436658)scale(0.12 -0.12)">
     <use xlink:href="#DejaVuSerif-61"/>
     <use x="83.789062" xlink:href="#DejaVuSerif-32"/>
     <use x="115.576172" xlink:href="#DejaVuSerif-111"/>
     <use x="175.78125" xlink:href="#DejaVuSerif-98"/>
     <use x="239.794922" xlink:href="#DejaVuSerif-115"/>
     <use x="291.113281" xlink:href="#DejaVuSerif-101"/>
     <use x="350.292969" xlink:href="#DejaVuSerif-114"/>
     <use x="398.095703" xlink:href="#DejaVuSerif-118"/>
     <use x="454.589844" xlink:href="#DejaVuSerif-101"/>
     <use x="513.769531" xlink:href="#DejaVuSerif-100"/>
     <use x="577.783203" xlink:href="#DejaVuSerif-32"/>
     <use x="609.570312" xlink:href="#DejaVuSerif-118"/>
     <use x="666.064453" xlink:href="#DejaVuSerif-97"/>
     <use x="725.683594" xlink:href="#DejaVuSerif-114"/>
     <use x="773.486328" xlink:href="#DejaVuSerif-105"/>
     <use x="805.46875" xlink:href="#DejaVuSerif-97"/>
     <use x="865.087891" xlink:href="#DejaVuSerif-98"/>
     <use x="929.101562" xlink:href="#DejaVuSerif-108"/>
     <use x="961.083984" xlink:href="#DejaVuSerif-101"/>
    </g>
   </g>
   <g id="text_3">
    <g id="patch_79">
     <path d="M 330.641575 117.742677 
L 473.051575 117.742677 
L 473.051575 98.208927 
L 330.641575 98.208927 
z
" style="fill:none;"/>
    </g>
    <!-- = process parameters -->
    <defs>
     <path d="M 20.515625 28.515625 
L 20.515625 23.390625 
Q 20.515625 14.015625 24.09375 9.109375 
Q 27.6875 4.203125 34.515625 4.203125 
Q 41.40625 4.203125 44.9375 9.71875 
Q 48.484375 15.234375 48.484375 25.984375 
Q 48.484375 36.765625 44.9375 42.234375 
Q 41.40625 47.703125 34.515625 47.703125 
Q 27.6875 47.703125 24.09375 42.765625 
Q 20.515625 37.84375 20.515625 28.515625 
z
M 11.53125 46.6875 
L 2.875 46.6875 
L 2.875 51.90625 
L 20.515625 51.90625 
L 20.515625 43.796875 
Q 23.140625 48.6875 27.21875 51 
Q 31.296875 53.328125 37.3125 53.328125 
Q 46.875 53.328125 52.921875 45.75 
Q 58.984375 38.1875 58.984375 25.984375 
Q 58.984375 13.765625 52.921875 6.171875 
Q 46.875 -1.421875 37.3125 -1.421875 
Q 31.296875 -1.421875 27.21875 0.890625 
Q 23.140625 3.21875 20.515625 8.109375 
L 20.515625 -15.578125 
L 29 -15.578125 
L 29 -20.796875 
L 2.875 -20.796875 
L 2.875 -15.578125 
L 11.53125 -15.578125 
z
" id="DejaVuSerif-112"/>
     <path d="M 51.421875 15.578125 
Q 49.515625 7.28125 44.09375 2.921875 
Q 38.671875 -1.421875 30.078125 -1.421875 
Q 18.75 -1.421875 11.859375 6.078125 
Q 4.984375 13.578125 4.984375 25.984375 
Q 4.984375 38.421875 11.859375 45.875 
Q 18.75 53.328125 30.078125 53.328125 
Q 35.015625 53.328125 39.890625 52.171875 
Q 44.78125 51.03125 49.703125 48.6875 
L 49.703125 35.40625 
L 44.484375 35.40625 
Q 43.453125 42.234375 40.015625 45.359375 
Q 36.578125 48.484375 30.171875 48.484375 
Q 22.90625 48.484375 19.1875 42.84375 
Q 15.484375 37.203125 15.484375 25.984375 
Q 15.484375 14.75 19.171875 9.078125 
Q 22.859375 3.421875 30.171875 3.421875 
Q 35.984375 3.421875 39.453125 6.4375 
Q 42.921875 9.46875 44.1875 15.578125 
z
" id="DejaVuSerif-99"/>
     <path d="M 51.8125 41.796875 
Q 54.390625 47.515625 58.421875 50.421875 
Q 62.453125 53.328125 67.828125 53.328125 
Q 75.984375 53.328125 79.984375 48.265625 
Q 83.984375 43.21875 83.984375 33.015625 
L 83.984375 5.171875 
L 92.09375 5.171875 
L 92.09375 0 
L 67.1875 0 
L 67.1875 5.171875 
L 75 5.171875 
L 75 31.984375 
Q 75 39.9375 72.65625 43.3125 
Q 70.3125 46.6875 64.890625 46.6875 
Q 58.890625 46.6875 55.734375 42.140625 
Q 52.59375 37.59375 52.59375 28.90625 
L 52.59375 5.171875 
L 60.40625 5.171875 
L 60.40625 0 
L 35.796875 0 
L 35.796875 5.171875 
L 43.609375 5.171875 
L 43.609375 32.328125 
Q 43.609375 40.09375 41.265625 43.390625 
Q 38.921875 46.6875 33.5 46.6875 
Q 27.484375 46.6875 24.328125 42.140625 
Q 21.1875 37.59375 21.1875 28.90625 
L 21.1875 5.171875 
L 29 5.171875 
L 29 0 
L 4.109375 0 
L 4.109375 5.171875 
L 12.203125 5.171875 
L 12.203125 46.78125 
L 3.609375 46.78125 
L 3.609375 51.90625 
L 21.1875 51.90625 
L 21.1875 42.671875 
Q 23.6875 47.859375 27.53125 50.59375 
Q 31.390625 53.328125 36.28125 53.328125 
Q 42.328125 53.328125 46.375 50.3125 
Q 50.4375 47.3125 51.8125 41.796875 
z
" id="DejaVuSerif-109"/>
    </defs>
    <g transform="translate(334.601575 111.287052)scale(0.12 -0.12)">
     <use xlink:href="#DejaVuSerif-61"/>
     <use x="83.789062" xlink:href="#DejaVuSerif-32"/>
     <use x="115.576172" xlink:href="#DejaVuSerif-112"/>
     <use x="179.589844" xlink:href="#DejaVuSerif-114"/>
     <use x="227.392578" xlink:href="#DejaVuSerif-111"/>
     <use x="287.597656" xlink:href="#DejaVuSerif-99"/>
     <use x="343.603516" xlink:href="#DejaVuSerif-101"/>
     <use x="402.783203" xlink:href="#DejaVuSerif-115"/>
     <use x="454.101562" xlink:href="#DejaVuSerif-115"/>
     <use x="505.419922" xlink:href="#DejaVuSerif-32"/>
     <use x="537.207031" xlink:href="#DejaVuSerif-112"/>
     <use x="601.220703" xlink:href="#DejaVuSerif-97"/>
     <use x="660.839844" xlink:href="#DejaVuSerif-114"/>
     <use x="708.642578" xlink:href="#DejaVuSerif-97"/>
     <use x="768.261719" xlink:href="#DejaVuSerif-109"/>
     <use x="863.085938" xlink:href="#DejaVuSerif-101"/>
     <use x="922.265625" xlink:href="#DejaVuSerif-116"/>
     <use x="962.451172" xlink:href="#DejaVuSerif-101"/>
     <use x="1021.630859" xlink:href="#DejaVuSerif-114"/>
     <use x="1069.433594" xlink:href="#DejaVuSerif-115"/>
    </g>
   </g>
   <g id="text_4">
    <g id="patch_80">
     <path d="M 330.641575 154.593071 
L 432.55345 154.593071 
L 432.55345 134.888696 
L 330.641575 134.888696 
z
" style="fill:none;"/>
    </g>
    <!-- = local geology -->
    <defs>
     <path d="M 52.484375 46.6875 
L 52.484375 1.125 
Q 52.484375 -10.0625 46.328125 -16.140625 
Q 40.1875 -22.21875 28.8125 -22.21875 
Q 23.6875 -22.21875 19 -21.28125 
Q 14.3125 -20.359375 10.015625 -18.5 
L 10.015625 -7.625 
L 14.703125 -7.625 
Q 15.578125 -12.703125 18.84375 -15.046875 
Q 22.125 -17.390625 28.21875 -17.390625 
Q 36.140625 -17.390625 39.8125 -12.921875 
Q 43.5 -8.453125 43.5 1.125 
L 43.5 8.109375 
Q 40.875 3.21875 36.796875 0.890625 
Q 32.71875 -1.421875 26.703125 -1.421875 
Q 17.140625 -1.421875 11.0625 6.171875 
Q 4.984375 13.765625 4.984375 25.984375 
Q 4.984375 38.1875 11.03125 45.75 
Q 17.09375 53.328125 26.703125 53.328125 
Q 32.71875 53.328125 36.796875 51 
Q 40.875 48.6875 43.5 43.796875 
L 43.5 51.90625 
L 61.078125 51.90625 
L 61.078125 46.6875 
z
M 43.5 28.515625 
Q 43.5 37.84375 39.90625 42.765625 
Q 36.328125 47.703125 29.5 47.703125 
Q 22.5625 47.703125 19.015625 42.234375 
Q 15.484375 36.765625 15.484375 25.984375 
Q 15.484375 15.234375 19.015625 9.71875 
Q 22.5625 4.203125 29.5 4.203125 
Q 36.328125 4.203125 39.90625 9.109375 
Q 43.5 14.015625 43.5 23.390625 
z
" id="DejaVuSerif-103"/>
     <path d="M 21.578125 -9.515625 
L 25 -0.875 
L 5.609375 46.6875 
L -0.296875 46.6875 
L -0.296875 51.90625 
L 23.578125 51.90625 
L 23.578125 46.6875 
L 15.28125 46.6875 
L 29.890625 10.984375 
L 44.484375 46.6875 
L 36.71875 46.6875 
L 36.71875 51.90625 
L 56.203125 51.90625 
L 56.203125 46.6875 
L 50.390625 46.6875 
L 26.609375 -11.71875 
Q 24.171875 -17.78125 21.1875 -20 
Q 18.21875 -22.21875 12.796875 -22.21875 
Q 10.5 -22.21875 8.078125 -21.828125 
Q 5.671875 -21.4375 3.21875 -20.703125 
L 3.21875 -10.796875 
L 7.8125 -10.796875 
Q 8.109375 -14.109375 9.5 -15.546875 
Q 10.890625 -17 13.8125 -17 
Q 16.5 -17 18.140625 -15.5 
Q 19.78125 -14.015625 21.578125 -9.515625 
z
" id="DejaVuSerif-121"/>
    </defs>
    <g transform="translate(334.601575 147.966821)scale(0.12 -0.12)">
     <use xlink:href="#DejaVuSerif-61"/>
     <use x="83.789062" xlink:href="#DejaVuSerif-32"/>
     <use x="115.576172" xlink:href="#DejaVuSerif-108"/>
     <use x="147.558594" xlink:href="#DejaVuSerif-111"/>
     <use x="207.763672" xlink:href="#DejaVuSerif-99"/>
     <use x="263.769531" xlink:href="#DejaVuSerif-97"/>
     <use x="323.388672" xlink:href="#DejaVuSerif-108"/>
     <use x="355.371094" xlink:href="#DejaVuSerif-32"/>
     <use x="387.158203" xlink:href="#DejaVuSerif-103"/>
     <use x="451.171875" xlink:href="#DejaVuSerif-101"/>
     <use x="510.351562" xlink:href="#DejaVuSerif-111"/>
     <use x="570.556641" xlink:href="#DejaVuSerif-108"/>
     <use x="602.539062" xlink:href="#DejaVuSerif-111"/>
     <use x="662.744141" xlink:href="#DejaVuSerif-103"/>
     <use x="726.757812" xlink:href="#DejaVuSerif-121"/>
    </g>
   </g>
   <g id="text_5">
    <!-- $w_{1,t-1}$ -->
    <defs>
     <path d="M 8.5 54.6875 
L 17.390625 54.6875 
L 19.671875 10.6875 
L 40.09375 54.6875 
L 50.484375 54.6875 
L 53.515625 10.6875 
L 72.90625 54.6875 
L 81.890625 54.6875 
L 56.890625 0 
L 46.390625 0 
L 43.703125 45.3125 
L 22.796875 0 
L 12.203125 0 
z
" id="DejaVuSans-Oblique-119"/>
     <path d="M 12.40625 8.296875 
L 28.515625 8.296875 
L 28.515625 63.921875 
L 10.984375 60.40625 
L 10.984375 69.390625 
L 28.421875 72.90625 
L 38.28125 72.90625 
L 38.28125 8.296875 
L 54.390625 8.296875 
L 54.390625 0 
L 12.40625 0 
z
" id="DejaVuSans-49"/>
     <path d="M 11.71875 12.40625 
L 22.015625 12.40625 
L 22.015625 4 
L 14.015625 -11.625 
L 7.71875 -11.625 
L 11.71875 4 
z
" id="DejaVuSans-44"/>
     <path d="M 42.28125 54.6875 
L 40.921875 47.703125 
L 23 47.703125 
L 17.1875 18.015625 
Q 16.890625 16.359375 16.75 15.234375 
Q 16.609375 14.109375 16.609375 13.484375 
Q 16.609375 10.359375 18.484375 8.9375 
Q 20.359375 7.515625 24.515625 7.515625 
L 33.59375 7.515625 
L 32.078125 0 
L 23.484375 0 
Q 15.484375 0 11.546875 3.125 
Q 7.625 6.25 7.625 12.59375 
Q 7.625 13.71875 7.765625 15.0625 
Q 7.90625 16.40625 8.203125 18.015625 
L 14.015625 47.703125 
L 6.390625 47.703125 
L 7.8125 54.6875 
L 15.28125 54.6875 
L 18.3125 70.21875 
L 27.296875 70.21875 
L 24.3125 54.6875 
z
" id="DejaVuSans-Oblique-116"/>
     <path d="M 10.59375 35.5 
L 73.1875 35.5 
L 73.1875 27.203125 
L 10.59375 27.203125 
z
" id="DejaVuSans-8722"/>
    </defs>
    <g transform="translate(101.205827 435.203725)scale(0.12 -0.12)">
     <use transform="translate(0 0.3125)" xlink:href="#DejaVuSans-Oblique-119"/>
     <use transform="translate(81.787109 -16.09375)scale(0.7)" xlink:href="#DejaVuSans-49"/>
     <use transform="translate(126.323242 -16.09375)scale(0.7)" xlink:href="#DejaVuSans-44"/>
     <use transform="translate(162.211914 -16.09375)scale(0.7)" xlink:href="#DejaVuSans-Oblique-116"/>
     <use transform="translate(203.295898 -16.09375)scale(0.7)" xlink:href="#DejaVuSans-8722"/>
     <use transform="translate(275.585938 -16.09375)scale(0.7)" xlink:href="#DejaVuSans-49"/>
    </g>
   </g>
   <g id="text_6">
    <!-- $w_{1,t}$ -->
    <g transform="translate(165.69874 435.203725)scale(0.12 -0.12)">
     <use transform="translate(0 0.3125)" xlink:href="#DejaVuSans-Oblique-119"/>
     <use transform="translate(81.787109 -16.09375)scale(0.7)" xlink:href="#DejaVuSans-49"/>
     <use transform="translate(126.323242 -16.09375)scale(0.7)" xlink:href="#DejaVuSans-44"/>
     <use transform="translate(162.211914 -16.09375)scale(0.7)" xlink:href="#DejaVuSans-Oblique-116"/>
    </g>
   </g>
   <g id="text_7">
    <!-- $r_{1}$ -->
    <defs>
     <path d="M 44.578125 46.390625 
Q 43.21875 47.125 41.453125 47.515625 
Q 39.703125 47.90625 37.703125 47.90625 
Q 30.515625 47.90625 25.140625 42.453125 
Q 19.78125 37.015625 18.015625 27.875 
L 12.5 0 
L 3.515625 0 
L 14.203125 54.6875 
L 23.1875 54.6875 
L 21.484375 46.1875 
Q 25.046875 50.921875 30 53.453125 
Q 34.96875 56 40.578125 56 
Q 42.046875 56 43.453125 55.828125 
Q 44.875 55.671875 46.296875 55.28125 
z
" id="DejaVuSans-Oblique-114"/>
    </defs>
    <g transform="translate(30.206457 506.574242)scale(0.12 -0.12)">
     <use xlink:href="#DejaVuSans-Oblique-114"/>
     <use transform="translate(41.113281 -16.40625)scale(0.7)" xlink:href="#DejaVuSans-49"/>
    </g>
   </g>
   <g id="text_8">
    <!-- $p$ -->
    <defs>
     <path d="M 49.609375 33.6875 
Q 49.609375 40.875 46.484375 44.671875 
Q 43.359375 48.484375 37.5 48.484375 
Q 33.5 48.484375 29.859375 46.4375 
Q 26.21875 44.390625 23.390625 40.484375 
Q 20.609375 36.625 18.9375 31.15625 
Q 17.28125 25.6875 17.28125 20.3125 
Q 17.28125 13.484375 20.40625 9.796875 
Q 23.53125 6.109375 29.296875 6.109375 
Q 33.546875 6.109375 37.1875 8.109375 
Q 40.828125 10.109375 43.40625 13.921875 
Q 46.1875 17.921875 47.890625 23.34375 
Q 49.609375 28.765625 49.609375 33.6875 
z
M 21.78125 46.390625 
Q 25.390625 51.125 30.296875 53.5625 
Q 35.203125 56 41.21875 56 
Q 49.609375 56 54.25 50.5 
Q 58.890625 45.015625 58.890625 35.109375 
Q 58.890625 27 56 19.65625 
Q 53.125 12.3125 47.703125 6.5 
Q 44.09375 2.640625 39.546875 0.609375 
Q 35.015625 -1.421875 29.984375 -1.421875 
Q 24.171875 -1.421875 20.21875 1 
Q 16.265625 3.421875 14.3125 8.203125 
L 8.6875 -20.796875 
L -0.296875 -20.796875 
L 14.40625 54.6875 
L 23.390625 54.6875 
z
" id="DejaVuSans-Oblique-112"/>
    </defs>
    <g transform="translate(258.47811 265.604985)scale(0.12 -0.12)">
     <use xlink:href="#DejaVuSans-Oblique-112"/>
    </g>
   </g>
   <g id="text_9">
    <!-- $w_{2,t-1}$ -->
    <defs>
     <path d="M 19.1875 8.296875 
L 53.609375 8.296875 
L 53.609375 0 
L 7.328125 0 
L 7.328125 8.296875 
Q 12.9375 14.109375 22.625 23.890625 
Q 32.328125 33.6875 34.8125 36.53125 
Q 39.546875 41.84375 41.421875 45.53125 
Q 43.3125 49.21875 43.3125 52.78125 
Q 43.3125 58.59375 39.234375 62.25 
Q 35.15625 65.921875 28.609375 65.921875 
Q 23.96875 65.921875 18.8125 64.3125 
Q 13.671875 62.703125 7.8125 59.421875 
L 7.8125 69.390625 
Q 13.765625 71.78125 18.9375 73 
Q 24.125 74.21875 28.421875 74.21875 
Q 39.75 74.21875 46.484375 68.546875 
Q 53.21875 62.890625 53.21875 53.421875 
Q 53.21875 48.921875 51.53125 44.890625 
Q 49.859375 40.875 45.40625 35.40625 
Q 44.1875 33.984375 37.640625 27.21875 
Q 31.109375 20.453125 19.1875 8.296875 
z
" id="DejaVuSans-50"/>
    </defs>
    <g transform="translate(101.205827 378.510812)scale(0.12 -0.12)">
     <use transform="translate(0 0.3125)" xlink:href="#DejaVuSans-Oblique-119"/>
     <use transform="translate(81.787109 -16.09375)scale(0.7)" xlink:href="#DejaVuSans-50"/>
     <use transform="translate(126.323242 -16.09375)scale(0.7)" xlink:href="#DejaVuSans-44"/>
     <use transform="translate(162.211914 -16.09375)scale(0.7)" xlink:href="#DejaVuSans-Oblique-116"/>
     <use transform="translate(203.295898 -16.09375)scale(0.7)" xlink:href="#DejaVuSans-8722"/>
     <use transform="translate(275.585938 -16.09375)scale(0.7)" xlink:href="#DejaVuSans-49"/>
    </g>
   </g>
   <g id="text_10">
    <!-- $w_{2,t}$ -->
    <g transform="translate(165.69874 378.510812)scale(0.12 -0.12)">
     <use transform="translate(0 0.3125)" xlink:href="#DejaVuSans-Oblique-119"/>
     <use transform="translate(81.787109 -16.09375)scale(0.7)" xlink:href="#DejaVuSans-50"/>
     <use transform="translate(126.323242 -16.09375)scale(0.7)" xlink:href="#DejaVuSans-44"/>
     <use transform="translate(162.211914 -16.09375)scale(0.7)" xlink:href="#DejaVuSans-Oblique-116"/>
    </g>
   </g>
   <g id="text_11">
    <!-- $r_{2}$ -->
    <g transform="translate(30.206457 449.881329)scale(0.12 -0.12)">
     <use xlink:href="#DejaVuSans-Oblique-114"/>
     <use transform="translate(41.113281 -16.40625)scale(0.7)" xlink:href="#DejaVuSans-50"/>
    </g>
   </g>
   <g id="text_12">
    <!-- $w_{3,t-1}$ -->
    <defs>
     <path d="M 40.578125 39.3125 
Q 47.65625 37.796875 51.625 33 
Q 55.609375 28.21875 55.609375 21.1875 
Q 55.609375 10.40625 48.1875 4.484375 
Q 40.765625 -1.421875 27.09375 -1.421875 
Q 22.515625 -1.421875 17.65625 -0.515625 
Q 12.796875 0.390625 7.625 2.203125 
L 7.625 11.71875 
Q 11.71875 9.328125 16.59375 8.109375 
Q 21.484375 6.890625 26.8125 6.890625 
Q 36.078125 6.890625 40.9375 10.546875 
Q 45.796875 14.203125 45.796875 21.1875 
Q 45.796875 27.640625 41.28125 31.265625 
Q 36.765625 34.90625 28.71875 34.90625 
L 20.21875 34.90625 
L 20.21875 43.015625 
L 29.109375 43.015625 
Q 36.375 43.015625 40.234375 45.921875 
Q 44.09375 48.828125 44.09375 54.296875 
Q 44.09375 59.90625 40.109375 62.90625 
Q 36.140625 65.921875 28.71875 65.921875 
Q 24.65625 65.921875 20.015625 65.03125 
Q 15.375 64.15625 9.8125 62.3125 
L 9.8125 71.09375 
Q 15.4375 72.65625 20.34375 73.4375 
Q 25.25 74.21875 29.59375 74.21875 
Q 40.828125 74.21875 47.359375 69.109375 
Q 53.90625 64.015625 53.90625 55.328125 
Q 53.90625 49.265625 50.4375 45.09375 
Q 46.96875 40.921875 40.578125 39.3125 
z
" id="DejaVuSans-51"/>
    </defs>
    <g transform="translate(101.205827 321.817899)scale(0.12 -0.12)">
     <use transform="translate(0 0.3125)" xlink:href="#DejaVuSans-Oblique-119"/>
     <use transform="translate(81.787109 -16.09375)scale(0.7)" xlink:href="#DejaVuSans-51"/>
     <use transform="translate(126.323242 -16.09375)scale(0.7)" xlink:href="#DejaVuSans-44"/>
     <use transform="translate(162.211914 -16.09375)scale(0.7)" xlink:href="#DejaVuSans-Oblique-116"/>
     <use transform="translate(203.295898 -16.09375)scale(0.7)" xlink:href="#DejaVuSans-8722"/>
     <use transform="translate(275.585938 -16.09375)scale(0.7)" xlink:href="#DejaVuSans-49"/>
    </g>
   </g>
   <g id="text_13">
    <!-- $w_{3,t}$ -->
    <g transform="translate(165.69874 321.817899)scale(0.12 -0.12)">
     <use transform="translate(0 0.3125)" xlink:href="#DejaVuSans-Oblique-119"/>
     <use transform="translate(81.787109 -16.09375)scale(0.7)" xlink:href="#DejaVuSans-51"/>
     <use transform="translate(126.323242 -16.09375)scale(0.7)" xlink:href="#DejaVuSans-44"/>
     <use transform="translate(162.211914 -16.09375)scale(0.7)" xlink:href="#DejaVuSans-Oblique-116"/>
    </g>
   </g>
   <g id="text_14">
    <!-- $r_{3}$ -->
    <g transform="translate(30.206457 393.188415)scale(0.12 -0.12)">
     <use xlink:href="#DejaVuSans-Oblique-114"/>
     <use transform="translate(41.113281 -16.40625)scale(0.7)" xlink:href="#DejaVuSans-51"/>
    </g>
   </g>
   <g id="text_15">
    <!-- $w_{4,t-1}$ -->
    <defs>
     <path d="M 37.796875 64.3125 
L 12.890625 25.390625 
L 37.796875 25.390625 
z
M 35.203125 72.90625 
L 47.609375 72.90625 
L 47.609375 25.390625 
L 58.015625 25.390625 
L 58.015625 17.1875 
L 47.609375 17.1875 
L 47.609375 0 
L 37.796875 0 
L 37.796875 17.1875 
L 4.890625 17.1875 
L 4.890625 26.703125 
z
" id="DejaVuSans-52"/>
    </defs>
    <g transform="translate(101.205827 265.124985)scale(0.12 -0.12)">
     <use transform="translate(0 0.3125)" xlink:href="#DejaVuSans-Oblique-119"/>
     <use transform="translate(81.787109 -16.09375)scale(0.7)" xlink:href="#DejaVuSans-52"/>
     <use transform="translate(126.323242 -16.09375)scale(0.7)" xlink:href="#DejaVuSans-44"/>
     <use transform="translate(162.211914 -16.09375)scale(0.7)" xlink:href="#DejaVuSans-Oblique-116"/>
     <use transform="translate(203.295898 -16.09375)scale(0.7)" xlink:href="#DejaVuSans-8722"/>
     <use transform="translate(275.585938 -16.09375)scale(0.7)" xlink:href="#DejaVuSans-49"/>
    </g>
   </g>
   <g id="text_16">
    <!-- $w_{4,t}$ -->
    <g transform="translate(165.69874 265.124985)scale(0.12 -0.12)">
     <use transform="translate(0 0.3125)" xlink:href="#DejaVuSans-Oblique-119"/>
     <use transform="translate(81.787109 -16.09375)scale(0.7)" xlink:href="#DejaVuSans-52"/>
     <use transform="translate(126.323242 -16.09375)scale(0.7)" xlink:href="#DejaVuSans-44"/>
     <use transform="translate(162.211914 -16.09375)scale(0.7)" xlink:href="#DejaVuSans-Oblique-116"/>
    </g>
   </g>
   <g id="text_17">
    <!-- $r_{4}$ -->
    <g transform="translate(30.206457 336.495502)scale(0.12 -0.12)">
     <use xlink:href="#DejaVuSans-Oblique-114"/>
     <use transform="translate(41.113281 -16.40625)scale(0.7)" xlink:href="#DejaVuSans-52"/>
    </g>
   </g>
   <g id="text_18">
    <!-- $w_{5,t-1}$ -->
    <defs>
     <path d="M 10.796875 72.90625 
L 49.515625 72.90625 
L 49.515625 64.59375 
L 19.828125 64.59375 
L 19.828125 46.734375 
Q 21.96875 47.46875 24.109375 47.828125 
Q 26.265625 48.1875 28.421875 48.1875 
Q 40.625 48.1875 47.75 41.5 
Q 54.890625 34.8125 54.890625 23.390625 
Q 54.890625 11.625 47.5625 5.09375 
Q 40.234375 -1.421875 26.90625 -1.421875 
Q 22.3125 -1.421875 17.546875 -0.640625 
Q 12.796875 0.140625 7.71875 1.703125 
L 7.71875 11.625 
Q 12.109375 9.234375 16.796875 8.0625 
Q 21.484375 6.890625 26.703125 6.890625 
Q 35.15625 6.890625 40.078125 11.328125 
Q 45.015625 15.765625 45.015625 23.390625 
Q 45.015625 31 40.078125 35.4375 
Q 35.15625 39.890625 26.703125 39.890625 
Q 22.75 39.890625 18.8125 39.015625 
Q 14.890625 38.140625 10.796875 36.28125 
z
" id="DejaVuSans-53"/>
    </defs>
    <g transform="translate(101.205827 208.432072)scale(0.12 -0.12)">
     <use transform="translate(0 0.3125)" xlink:href="#DejaVuSans-Oblique-119"/>
     <use transform="translate(81.787109 -16.09375)scale(0.7)" xlink:href="#DejaVuSans-53"/>
     <use transform="translate(126.323242 -16.09375)scale(0.7)" xlink:href="#DejaVuSans-44"/>
     <use transform="translate(162.211914 -16.09375)scale(0.7)" xlink:href="#DejaVuSans-Oblique-116"/>
     <use transform="translate(203.295898 -16.09375)scale(0.7)" xlink:href="#DejaVuSans-8722"/>
     <use transform="translate(275.585938 -16.09375)scale(0.7)" xlink:href="#DejaVuSans-49"/>
    </g>
   </g>
   <g id="text_19">
    <!-- $w_{5,t}$ -->
    <g transform="translate(165.69874 208.432072)scale(0.12 -0.12)">
     <use transform="translate(0 0.3125)" xlink:href="#DejaVuSans-Oblique-119"/>
     <use transform="translate(81.787109 -16.09375)scale(0.7)" xlink:href="#DejaVuSans-53"/>
     <use transform="translate(126.323242 -16.09375)scale(0.7)" xlink:href="#DejaVuSans-44"/>
     <use transform="translate(162.211914 -16.09375)scale(0.7)" xlink:href="#DejaVuSans-Oblique-116"/>
    </g>
   </g>
   <g id="text_20">
    <!-- $r_{5}$ -->
    <g transform="translate(30.206457 279.802589)scale(0.12 -0.12)">
     <use xlink:href="#DejaVuSans-Oblique-114"/>
     <use transform="translate(41.113281 -16.40625)scale(0.7)" xlink:href="#DejaVuSans-53"/>
    </g>
   </g>
   <g id="text_21">
    <!-- $w_{6,t-1}$ -->
    <defs>
     <path d="M 33.015625 40.375 
Q 26.375 40.375 22.484375 35.828125 
Q 18.609375 31.296875 18.609375 23.390625 
Q 18.609375 15.53125 22.484375 10.953125 
Q 26.375 6.390625 33.015625 6.390625 
Q 39.65625 6.390625 43.53125 10.953125 
Q 47.40625 15.53125 47.40625 23.390625 
Q 47.40625 31.296875 43.53125 35.828125 
Q 39.65625 40.375 33.015625 40.375 
z
M 52.59375 71.296875 
L 52.59375 62.3125 
Q 48.875 64.0625 45.09375 64.984375 
Q 41.3125 65.921875 37.59375 65.921875 
Q 27.828125 65.921875 22.671875 59.328125 
Q 17.53125 52.734375 16.796875 39.40625 
Q 19.671875 43.65625 24.015625 45.921875 
Q 28.375 48.1875 33.59375 48.1875 
Q 44.578125 48.1875 50.953125 41.515625 
Q 57.328125 34.859375 57.328125 23.390625 
Q 57.328125 12.15625 50.6875 5.359375 
Q 44.046875 -1.421875 33.015625 -1.421875 
Q 20.359375 -1.421875 13.671875 8.265625 
Q 6.984375 17.96875 6.984375 36.375 
Q 6.984375 53.65625 15.1875 63.9375 
Q 23.390625 74.21875 37.203125 74.21875 
Q 40.921875 74.21875 44.703125 73.484375 
Q 48.484375 72.75 52.59375 71.296875 
z
" id="DejaVuSans-54"/>
    </defs>
    <g transform="translate(101.205827 151.739158)scale(0.12 -0.12)">
     <use transform="translate(0 0.3125)" xlink:href="#DejaVuSans-Oblique-119"/>
     <use transform="translate(81.787109 -16.09375)scale(0.7)" xlink:href="#DejaVuSans-54"/>
     <use transform="translate(126.323242 -16.09375)scale(0.7)" xlink:href="#DejaVuSans-44"/>
     <use transform="translate(162.211914 -16.09375)scale(0.7)" xlink:href="#DejaVuSans-Oblique-116"/>
     <use transform="translate(203.295898 -16.09375)scale(0.7)" xlink:href="#DejaVuSans-8722"/>
     <use transform="translate(275.585938 -16.09375)scale(0.7)" xlink:href="#DejaVuSans-49"/>
    </g>
   </g>
   <g id="text_22">
    <!-- $w_{6,t}$ -->
    <g transform="translate(165.69874 151.739158)scale(0.12 -0.12)">
     <use transform="translate(0 0.3125)" xlink:href="#DejaVuSans-Oblique-119"/>
     <use transform="translate(81.787109 -16.09375)scale(0.7)" xlink:href="#DejaVuSans-54"/>
     <use transform="translate(126.323242 -16.09375)scale(0.7)" xlink:href="#DejaVuSans-44"/>
     <use transform="translate(162.211914 -16.09375)scale(0.7)" xlink:href="#DejaVuSans-Oblique-116"/>
    </g>
   </g>
   <g id="text_23">
    <!-- $r_{6}$ -->
    <g transform="translate(30.206457 223.109675)scale(0.12 -0.12)">
     <use xlink:href="#DejaVuSans-Oblique-114"/>
     <use transform="translate(41.113281 -16.40625)scale(0.7)" xlink:href="#DejaVuSans-54"/>
    </g>
   </g>
   <g id="text_24">
    <!-- $w_{7,t-1}$ -->
    <defs>
     <path d="M 8.203125 72.90625 
L 55.078125 72.90625 
L 55.078125 68.703125 
L 28.609375 0 
L 18.3125 0 
L 43.21875 64.59375 
L 8.203125 64.59375 
z
" id="DejaVuSans-55"/>
    </defs>
    <g transform="translate(101.205827 95.046245)scale(0.12 -0.12)">
     <use transform="translate(0 0.3125)" xlink:href="#DejaVuSans-Oblique-119"/>
     <use transform="translate(81.787109 -16.09375)scale(0.7)" xlink:href="#DejaVuSans-55"/>
     <use transform="translate(126.323242 -16.09375)scale(0.7)" xlink:href="#DejaVuSans-44"/>
     <use transform="translate(162.211914 -16.09375)scale(0.7)" xlink:href="#DejaVuSans-Oblique-116"/>
     <use transform="translate(203.295898 -16.09375)scale(0.7)" xlink:href="#DejaVuSans-8722"/>
     <use transform="translate(275.585938 -16.09375)scale(0.7)" xlink:href="#DejaVuSans-49"/>
    </g>
   </g>
   <g id="text_25">
    <!-- $w_{7,t}$ -->
    <g transform="translate(165.69874 95.046245)scale(0.12 -0.12)">
     <use transform="translate(0 0.3125)" xlink:href="#DejaVuSans-Oblique-119"/>
     <use transform="translate(81.787109 -16.09375)scale(0.7)" xlink:href="#DejaVuSans-55"/>
     <use transform="translate(126.323242 -16.09375)scale(0.7)" xlink:href="#DejaVuSans-44"/>
     <use transform="translate(162.211914 -16.09375)scale(0.7)" xlink:href="#DejaVuSans-Oblique-116"/>
    </g>
   </g>
   <g id="text_26">
    <!-- $r_{7}$ -->
    <g transform="translate(30.206457 166.416762)scale(0.12 -0.12)">
     <use xlink:href="#DejaVuSans-Oblique-114"/>
     <use transform="translate(41.113281 -16.40625)scale(0.7)" xlink:href="#DejaVuSans-55"/>
    </g>
   </g>
   <g id="text_27">
    <!-- $w_{8,t-1}$ -->
    <defs>
     <path d="M 31.78125 34.625 
Q 24.75 34.625 20.71875 30.859375 
Q 16.703125 27.09375 16.703125 20.515625 
Q 16.703125 13.921875 20.71875 10.15625 
Q 24.75 6.390625 31.78125 6.390625 
Q 38.8125 6.390625 42.859375 10.171875 
Q 46.921875 13.96875 46.921875 20.515625 
Q 46.921875 27.09375 42.890625 30.859375 
Q 38.875 34.625 31.78125 34.625 
z
M 21.921875 38.8125 
Q 15.578125 40.375 12.03125 44.71875 
Q 8.5 49.078125 8.5 55.328125 
Q 8.5 64.0625 14.71875 69.140625 
Q 20.953125 74.21875 31.78125 74.21875 
Q 42.671875 74.21875 48.875 69.140625 
Q 55.078125 64.0625 55.078125 55.328125 
Q 55.078125 49.078125 51.53125 44.71875 
Q 48 40.375 41.703125 38.8125 
Q 48.828125 37.15625 52.796875 32.3125 
Q 56.78125 27.484375 56.78125 20.515625 
Q 56.78125 9.90625 50.3125 4.234375 
Q 43.84375 -1.421875 31.78125 -1.421875 
Q 19.734375 -1.421875 13.25 4.234375 
Q 6.78125 9.90625 6.78125 20.515625 
Q 6.78125 27.484375 10.78125 32.3125 
Q 14.796875 37.15625 21.921875 38.8125 
z
M 18.3125 54.390625 
Q 18.3125 48.734375 21.84375 45.5625 
Q 25.390625 42.390625 31.78125 42.390625 
Q 38.140625 42.390625 41.71875 45.5625 
Q 45.3125 48.734375 45.3125 54.390625 
Q 45.3125 60.0625 41.71875 63.234375 
Q 38.140625 66.40625 31.78125 66.40625 
Q 25.390625 66.40625 21.84375 63.234375 
Q 18.3125 60.0625 18.3125 54.390625 
z
" id="DejaVuSans-56"/>
    </defs>
    <g transform="translate(101.205827 38.353332)scale(0.12 -0.12)">
     <use transform="translate(0 0.3125)" xlink:href="#DejaVuSans-Oblique-119"/>
     <use transform="translate(81.787109 -16.09375)scale(0.7)" xlink:href="#DejaVuSans-56"/>
     <use transform="translate(126.323242 -16.09375)scale(0.7)" xlink:href="#DejaVuSans-44"/>
     <use transform="translate(162.211914 -16.09375)scale(0.7)" xlink:href="#DejaVuSans-Oblique-116"/>
     <use transform="translate(203.295898 -16.09375)scale(0.7)" xlink:href="#DejaVuSans-8722"/>
     <use transform="translate(275.585938 -16.09375)scale(0.7)" xlink:href="#DejaVuSans-49"/>
    </g>
   </g>
   <g id="text_28">
    <!-- $w_{8,t}$ -->
    <g transform="translate(165.69874 38.353332)scale(0.12 -0.12)">
     <use transform="translate(0 0.3125)" xlink:href="#DejaVuSans-Oblique-119"/>
     <use transform="translate(81.787109 -16.09375)scale(0.7)" xlink:href="#DejaVuSans-56"/>
     <use transform="translate(126.323242 -16.09375)scale(0.7)" xlink:href="#DejaVuSans-44"/>
     <use transform="translate(162.211914 -16.09375)scale(0.7)" xlink:href="#DejaVuSans-Oblique-116"/>
    </g>
   </g>
   <g id="text_29">
    <!-- $r_{8}$ -->
    <g transform="translate(30.206457 109.723848)scale(0.12 -0.12)">
     <use xlink:href="#DejaVuSans-Oblique-114"/>
     <use transform="translate(41.113281 -16.40625)scale(0.7)" xlink:href="#DejaVuSans-56"/>
    </g>
   </g>
  </g>
 </g>
 <defs>
  <clipPath id="p0633dea819">
   <rect height="524.409449" width="333.070866" x="7.2" y="7.2"/>
  </clipPath>
 </defs>
</svg>
